<svg xmlns="http://www.w3.org/2000/svg" width="900" height="120" viewBox="0 0 900 120">
<rect width="100%" height="100%" fill="#0b1020"/>
<style>text{font-family:Inter,Arial,sans-serif;font-size:13px;fill:#eef2ff}.box{fill:#172554;stroke:#60a5fa;stroke-width:2}.arrow{stroke:#93c5fd;stroke-width:2;marker-end:url(#a)}</style>
<defs><marker id="a" markerWidth="8" markerHeight="8" refX="6" refY="3" orient="auto"><path d="M0,0 L0,6 L6,3 z" fill="#93c5fd"/></marker></defs>
<rect class="box" x="20" y="35" rx="10" ry="10" width="125" height="50"/>
<text x="82" y="58" text-anchor="middle">Catalog/docs/tables</text>
<line class="arrow" x1="150" y1="60" x2="180" y2="60"/>
<rect class="box" x="175" y="35" rx="10" ry="10" width="125" height="50"/>
<text x="237" y="58" text-anchor="middle">v14 validation</text>
<line class="arrow" x1="305" y1="60" x2="335" y2="60"/>
<rect class="box" x="330" y="35" rx="10" ry="10" width="125" height="50"/>
<text x="392" y="58" text-anchor="middle">v8 release action</text>
<line class="arrow" x1="460" y1="60" x2="490" y2="60"/>
<rect class="box" x="485" y="35" rx="10" ry="10" width="125" height="50"/>
<text x="547" y="58" text-anchor="middle">Public site validation</text>
<line class="arrow" x1="615" y1="60" x2="645" y2="60"/>
<rect class="box" x="640" y="35" rx="10" ry="10" width="125" height="50"/>
<text x="702" y="58" text-anchor="middle">Paid-file guard</text>
<line class="arrow" x1="770" y1="60" x2="800" y2="60"/>
<rect class="box" x="795" y="35" rx="10" ry="10" width="125" height="50"/>
<text x="857" y="58" text-anchor="middle">Catalog/docs validatio</text>
</svg>
