<svg xmlns="http://www.w3.org/2000/svg" width="900" height="140" viewBox="0 0 900 140" role="img" aria-label="goalos_public_site_architecture"><defs><marker id="a" markerWidth="8" markerHeight="8" refX="7" refY="4" orient="auto"><path d="M0,0 L8,4 L0,8 Z" fill="#fbbf24"/></marker></defs><rect width="100%" height="100%" fill="#020617"/><path d="M 145 69 L 165 69" stroke="#fbbf24" stroke-width="2" marker-end="url(#a)"/><path d="M 295 69 L 315 69" stroke="#fbbf24" stroke-width="2" marker-end="url(#a)"/><path d="M 445 69 L 465 69" stroke="#fbbf24" stroke-width="2" marker-end="url(#a)"/><path d="M 595 69 L 615 69" stroke="#fbbf24" stroke-width="2" marker-end="url(#a)"/><rect x="20" y="45" width="125" height="48" rx="10" fill="#0f172a" stroke="#38bdf8"/><text x="82" y="67" text-anchor="middle" fill="#e0f2fe" font-size="11" font-family="Arial">GitHub repo</text><rect x="170" y="45" width="125" height="48" rx="10" fill="#0f172a" stroke="#38bdf8"/><text x="232" y="67" text-anchor="middle" fill="#e0f2fe" font-size="11" font-family="Arial">site/</text><rect x="320" y="45" width="125" height="48" rx="10" fill="#0f172a" stroke="#38bdf8"/><text x="382" y="67" text-anchor="middle" fill="#e0f2fe" font-size="11" font-family="Arial">Validation</text><rect x="470" y="45" width="125" height="48" rx="10" fill="#0f172a" stroke="#38bdf8"/><text x="532" y="67" text-anchor="middle" fill="#e0f2fe" font-size="11" font-family="Arial">GitHub Pages</text><rect x="620" y="45" width="125" height="48" rx="10" fill="#0f172a" stroke="#38bdf8"/><text x="682" y="67" text-anchor="middle" fill="#e0f2fe" font-size="11" font-family="Arial">Public site</text></svg>
